<svg width="350" height="350" viewBox="0 0 350 350" fill="none" xmlns="http://www.w3.org/2000/svg">
<path d="M175 246.75C195.417 246.75 212.917 239.823 227.5 225.969C242.083 212.115 249.375 195.125 249.375 175C249.375 154.292 242.156 136.719 227.719 122.281C213.281 107.844 195.708 100.625 175 100.625C154.875 100.625 137.885 107.917 124.031 122.5C110.177 137.083 103.25 154.583 103.25 175C103.25 195.125 110.177 212.115 124.031 225.969C137.885 239.823 154.875 246.75 175 246.75ZM175 350C151.083 350 128.479 345.406 107.188 336.219C85.8958 327.031 67.3021 314.49 51.4062 298.594C35.5104 282.698 22.9687 264.104 13.7812 242.812C4.59375 221.521 0 198.917 0 175C0 150.792 4.59375 128.042 13.7812 106.75C22.9687 85.4583 35.5104 66.9375 51.4062 51.1875C67.3021 35.4375 85.8958 22.9687 107.188 13.7812C128.479 4.59375 151.083 0 175 0C199.208 0 221.958 4.59375 243.25 13.7812C264.542 22.9687 283.062 35.4375 298.813 51.1875C314.563 66.9375 327.031 85.4583 336.219 106.75C345.406 128.042 350 150.792 350 175C350 198.917 345.406 221.521 336.219 242.812C327.031 264.104 314.563 282.698 298.813 298.594C283.062 314.49 264.542 327.031 243.25 336.219C221.958 345.406 199.208 350 175 350Z" fill="url(#paint0_radial_102_25)"/>
<path d="M175 246.75C195.417 246.75 212.917 239.823 227.5 225.969C242.083 212.115 249.375 195.125 249.375 175C249.375 154.292 242.156 136.719 227.719 122.281C213.281 107.844 195.708 100.625 175 100.625C154.875 100.625 137.885 107.917 124.031 122.5C110.177 137.083 103.25 154.583 103.25 175C103.25 195.125 110.177 212.115 124.031 225.969C137.885 239.823 154.875 246.75 175 246.75ZM175 350C151.083 350 128.479 345.406 107.188 336.219C85.8958 327.031 67.3021 314.49 51.4062 298.594C35.5104 282.698 22.9687 264.104 13.7812 242.812C4.59375 221.521 0 198.917 0 175C0 150.792 4.59375 128.042 13.7812 106.75C22.9687 85.4583 35.5104 66.9375 51.4062 51.1875C67.3021 35.4375 85.8958 22.9687 107.188 13.7812C128.479 4.59375 151.083 0 175 0C199.208 0 221.958 4.59375 243.25 13.7812C264.542 22.9687 283.062 35.4375 298.813 51.1875C314.563 66.9375 327.031 85.4583 336.219 106.75C345.406 128.042 350 150.792 350 175C350 198.917 345.406 221.521 336.219 242.812C327.031 264.104 314.563 282.698 298.813 298.594C283.062 314.49 264.542 327.031 243.25 336.219C221.958 345.406 199.208 350 175 350Z" fill="url(#paint1_angular_102_25)" style="mix-blend-mode:difference"/>
<path d="M175 246.75C195.417 246.75 212.917 239.823 227.5 225.969C242.083 212.115 249.375 195.125 249.375 175C249.375 154.292 242.156 136.719 227.719 122.281C213.281 107.844 195.708 100.625 175 100.625C154.875 100.625 137.885 107.917 124.031 122.5C110.177 137.083 103.25 154.583 103.25 175C103.25 195.125 110.177 212.115 124.031 225.969C137.885 239.823 154.875 246.75 175 246.75ZM175 350C151.083 350 128.479 345.406 107.188 336.219C85.8958 327.031 67.3021 314.49 51.4062 298.594C35.5104 282.698 22.9687 264.104 13.7812 242.812C4.59375 221.521 0 198.917 0 175C0 150.792 4.59375 128.042 13.7812 106.75C22.9687 85.4583 35.5104 66.9375 51.4062 51.1875C67.3021 35.4375 85.8958 22.9687 107.188 13.7812C128.479 4.59375 151.083 0 175 0C199.208 0 221.958 4.59375 243.25 13.7812C264.542 22.9687 283.062 35.4375 298.813 51.1875C314.563 66.9375 327.031 85.4583 336.219 106.75C345.406 128.042 350 150.792 350 175C350 198.917 345.406 221.521 336.219 242.812C327.031 264.104 314.563 282.698 298.813 298.594C283.062 314.49 264.542 327.031 243.25 336.219C221.958 345.406 199.208 350 175 350Z" fill="url(#paint2_angular_102_25)" style="mix-blend-mode:screen"/>
<defs>
<radialGradient id="paint0_radial_102_25" cx="0" cy="0" r="1" gradientUnits="userSpaceOnUse" gradientTransform="translate(350) rotate(135) scale(494.975)">
<stop stop-color="#78FFF1"/>
<stop offset="0.2" stop-color="#D0DEFF"/>
<stop offset="0.4" stop-color="#DF97DF"/>
<stop offset="0.6" stop-color="#97EBBE"/>
<stop offset="0.8" stop-color="#F1FCAF"/>
<stop offset="1" stop-color="#C2E3F1"/>
</radialGradient>
<radialGradient id="paint1_angular_102_25" cx="0" cy="0" r="1" gradientUnits="userSpaceOnUse" gradientTransform="translate(175 175) rotate(106.914) scale(182.912)">
<stop stop-color="white"/>
<stop offset="0.125"/>
<stop offset="0.25" stop-color="white"/>
<stop offset="0.375"/>
<stop offset="0.5" stop-color="white"/>
<stop offset="0.625"/>
<stop offset="0.75" stop-color="white"/>
<stop offset="0.875"/>
<stop offset="1" stop-color="white"/>
</radialGradient>
<radialGradient id="paint2_angular_102_25" cx="0" cy="0" r="1" gradientUnits="userSpaceOnUse" gradientTransform="translate(175 175) rotate(106.914) scale(182.912)">
<stop stop-color="white"/>
<stop offset="0.125"/>
<stop offset="0.25" stop-color="white"/>
<stop offset="0.375"/>
<stop offset="0.5" stop-color="white"/>
<stop offset="0.625"/>
<stop offset="0.75" stop-color="white"/>
<stop offset="0.875"/>
<stop offset="1" stop-color="white"/>
</radialGradient>
</defs>
</svg>
