<svg width="351" height="132" viewBox="0 0 351 132" fill="none" xmlns="http://www.w3.org/2000/svg">
<g clip-path="url(#clip0_41_235)">
<path d="M81 23H91L81.6667 0H81V23Z" fill="#224980"/>
<rect x="6" width="76" height="23" fill="#224980"/>
<rect x="6" y="23" width="172" height="103" rx="5" fill="#224980"/>
<rect x="38" y="11" width="136" height="114" rx="10" fill="#5D7290"/>
<rect x="47" y="18" width="119" height="39" rx="10" fill="#4F617A"/>
<path d="M0 29H162C167.523 29 172 33.4772 172 39V122C172 127.523 167.523 132 162 132H10C4.47716 132 0 127.523 0 122V29Z" fill="#2A5187"/>
<rect y="7" width="75" height="23" fill="#214069"/>
<path d="M74 30H85L74.7333 7H74V30Z" fill="#214069"/>
<path d="M10.7461 93V63.9091H18.6438V75.6705H19.0415L27.7915 63.9091H36.9961L27.1665 76.8636L37.2234 93H27.7915L21.2575 82.0909L18.6438 85.5V93H10.7461ZM47.2376 63.9091V93H39.3398V63.9091H47.2376ZM62.1737 93H50.9805V63.9091H62.06C65.0524 63.9091 67.6377 64.4915 69.8157 65.6562C72.0032 66.8116 73.6888 68.4782 74.8725 70.6562C76.0657 72.8248 76.6623 75.4242 76.6623 78.4545C76.6623 81.4848 76.0704 84.089 74.8867 86.267C73.703 88.4356 72.0269 90.1023 69.8583 91.267C67.6897 92.4223 65.1282 93 62.1737 93ZM58.8782 86.2955H61.8896C63.329 86.2955 64.5553 86.0634 65.5685 85.5994C66.5913 85.1354 67.3678 84.3352 67.8981 83.1989C68.4379 82.0625 68.7077 80.4811 68.7077 78.4545C68.7077 76.428 68.4331 74.8466 67.8839 73.7102C67.3441 72.5739 66.5487 71.7737 65.4975 71.3097C64.4558 70.8456 63.1774 70.6136 61.6623 70.6136H58.8782V86.2955ZM86.0373 93H77.5146L87.1168 63.9091H97.9123L107.515 93H98.9918L92.6282 71.9205H92.4009L86.0373 93ZM84.4464 81.5227H100.469V87.4318H84.4464V81.5227ZM110.316 93V63.9091H118.214V86.6364H129.975V93H110.316ZM140.725 93H132.202L141.804 63.9091H152.6L162.202 93H153.679L147.316 71.9205H147.088L140.725 93ZM139.134 81.5227H155.157V87.4318H139.134V81.5227Z" fill="white"/>
<path d="M193.656 102V45.2727H209.057V89.5909H231.991V102H193.656ZM253.617 45.2727V102H238.217V45.2727H253.617ZM260.916 102V45.2727H300.802V57.6818H276.317V67.4318H298.365V79.8409H276.317V102H260.916ZM306.467 102V45.2727H347.35V57.6818H321.867V67.4318H345.245V79.8409H321.867V89.5909H347.24V102H306.467Z" fill="#1284ED"/>
</g>
<defs>
<clipPath id="clip0_41_235">
<rect width="351" height="132" fill="white"/>
</clipPath>
</defs>
</svg>
